<svg xmlns="http://www.w3.org/2000/svg" width="111.813" height="18.75" viewBox="0 0 111.813 18.75">
  <defs>
    <style>
      .cls-1 {
        fill: #fff;
        fill-rule: evenodd;
      }
    </style>
  </defs>
  <path id="bouncy-logo.svg" class="cls-1" d="M102.823,61.951V58.7h3.3a1.654,1.654,0,0,1,1.624,1.625,1.621,1.621,0,0,1-1.624,1.625h-3.3Zm0-7.373V51.328H105.2a1.625,1.625,0,0,1,0,3.249h-2.375ZM107.147,66a5.47,5.47,0,0,0,3.374-9.8,5.491,5.491,0,0,0,1.2-3.374,5.656,5.656,0,0,0-5.548-5.574H97.9V66h9.248Zm8.077-9.348a9.361,9.361,0,1,0,9.348-9.4A9.333,9.333,0,0,0,115.224,56.652Zm13.822-.025a4.462,4.462,0,1,1-4.474-4.474A4.485,4.485,0,0,1,129.046,56.627ZM141.8,47.254h-4.949V58.6a7.4,7.4,0,0,0,14.8,0V47.254H146.7V58.527a2.45,2.45,0,0,1-4.9,0V47.254ZM171.2,66V47.254h-4.924V56.1L157.4,47.254h-2V66h4.924V57.127L169.171,66H171.2Zm18.05-16.021a9.271,9.271,0,0,0-6.6-2.724A9.373,9.373,0,1,0,189.3,63.225l-3.5-3.449a4.422,4.422,0,1,1-3.149-7.548,4.375,4.375,0,0,1,3.149,1.225Zm20.475-2.724h-5.673L200.422,53.5l-3.6-6.249H191.15L198,59.1V66h4.874V59.1Z" transform="translate(-97.906 -47.25)"/>
</svg>
