<svg xmlns="http://www.w3.org/2000/svg" width="26" height="26" viewBox="0 0 26 26"><path fill="#3f729b" d="M13 .2a12.8 12.8 0 1 1 0 25.6A12.8 12.8 0 0 1 13 .2z"/><path fill="#fff" d="M17.42 5.8H8.58A2.79 2.79 0 0 0 5.8 8.58v8.84a2.79 2.79 0 0 0 2.78 2.78h8.84a2.79 2.79 0 0 0 2.78-2.78V8.58a2.79 2.79 0 0 0-2.78-2.78zm1.19 1.61V9.8l-2.4.01-.02-2.4zM13 10.59c2 0 2.41 1.88 2.41 2.41a2.41 2.41 0 0 1-4.82 0c0-.53.41-2.41 2.41-2.41zm5.62 6.65c0 .76-.62 1.38-1.38 1.38h-8.5c-.77 0-1.39-.62-1.39-1.38V11.4h2a4.57 4.57 0 0 0-.29 1.6 3.95 3.95 0 0 0 7.88 0c0-.52-.1-1.15-.3-1.6h1.98z"/></svg>