<svg xmlns="http://www.w3.org/2000/svg" width="26" height="26" viewBox="0 0 26 26"><path fill="#26a6d1" d="M13 .2a12.8 12.8 0 1 1 0 25.6A12.8 12.8 0 0 1 13 .2z"/><path fill="#fff" d="M21 8.82a6.3 6.3 0 0 1-1.79.48 3.07 3.07 0 0 0 1.37-1.68c-.6.35-1.27.6-1.98.74a3.16 3.16 0 0 0-2.28-.96 3.08 3.08 0 0 0-3.03 3.72 8.97 8.97 0 0 1-6.43-3.16c-.27.44-.43.96-.43 1.52A3 3 0 0 0 7.83 12a3.2 3.2 0 0 1-1.42-.38v.04a3.05 3.05 0 0 0 2.5 2.97 3.18 3.18 0 0 1-1.4.05 3.1 3.1 0 0 0 2.9 2.1 6.4 6.4 0 0 1-4.61 1.25 9.02 9.02 0 0 0 4.78 1.37 8.68 8.68 0 0 0 8.87-9.01c.6-.43 1.13-.96 1.55-1.57z"/></svg>