<svg xmlns="http://www.w3.org/2000/svg" width="113" height="19" viewBox="0 0 113 19"><path fill="#fff" d="M5.82 14.95V11.7h3.3c.85 0 1.63.73 1.63 1.63 0 .9-.73 1.62-1.63 1.62zm0-7.37V4.33H8.2a1.62 1.62 0 1 1 0 3.25zM10.15 19c2.97 0 5.5-2.52 5.5-5.5 0-1.7-.85-3.27-2.13-4.3a5.5 5.5 0 0 0 1.2-3.37c0-3-2.55-5.58-5.55-5.58H.9V19zm8.07-9.35a9.35 9.35 0 1 0 18.72 0 9.4 9.4 0 0 0-9.37-9.4 9.38 9.38 0 0 0-9.35 9.4zm13.83-.02c0 2.45-2 4.47-4.48 4.47a4.48 4.48 0 0 1 0-8.95c2.48 0 4.48 2 4.48 4.48zM44.8.25h-4.95V11.6c0 4.13 3.27 7.4 7.4 7.4 4.07 0 7.4-3.27 7.4-7.4V.25H49.7v11.28a2.45 2.45 0 0 1-4.9 0zM74.2 19V.25h-4.93V9.1L60.4.25h-2V19h4.92v-8.87L72.17 19zM92.24 2.98a9.38 9.38 0 1 0 .05 13.25l-3.5-3.45a4.3 4.3 0 0 1-3.15 1.25 4.25 4.25 0 0 1-4.4-4.4c0-2.55 1.85-4.4 4.4-4.4 1.27 0 2.37.45 3.15 1.22zM112.72.25h-5.67l-3.63 6.25-3.6-6.25h-5.67L101 12.1V19h4.87v-6.9z"/></svg>