<svg xmlns="http://www.w3.org/2000/svg" width="23.938" height="16.16" viewBox="0 0 23.938 16.16">
  <defs>
    <style>
      .cls-1 {
        fill: #fff;
        fill-rule: evenodd;
      }
    </style>
  </defs>
  <path id="be.svg" class="cls-1" d="M895.154,3388.53s2.267-.18,2.267-3.01a3.907,3.907,0,0,0-4.2-4.22h-7.729v15.83h7.729s4.717,0.16,4.717-4.67C897.936,3392.46,898.141,3388.53,895.154,3388.53Zm-6.259-4.42h4.323s1.05,0,1.05,1.65-0.618,1.89-1.32,1.89H888.9v-3.54Zm4.1,10.21h-4.1v-4.23h4.323s1.566-.02,1.566,2.17C894.784,3394.11,893.614,3394.31,893,3394.32Zm11.23-8.99c-5.713,0-5.708,6.08-5.708,6.08s-0.392,6.05,5.708,6.05c0,0,5.082.31,5.082-4.21H906.7s0.086,1.7-2.382,1.7a2.462,2.462,0,0,1-2.615-2.75h7.7S910.242,3385.33,904.229,3385.33Zm2.324,4.76h-4.879a2.752,2.752,0,0,1,2.614-2.44C906.58,3387.65,906.553,3390.09,906.553,3390.09Zm0.61-7.86h-6.13v1.95h6.128v-1.95h0Z" transform="translate(-885.5 -3381.31)"/>
</svg>
