<svg xmlns="http://www.w3.org/2000/svg" width="24" height="24" viewBox="0 0 24 24">
  <defs>
    <style>
      .cls-1 {
        fill: #fff;
        fill-rule: evenodd;
      }
    </style>
  </defs>
  <path id="linkedin.svg" class="cls-1" d="M793.427,3376.11a2.571,2.571,0,0,1-2.768,2.6A2.6,2.6,0,1,1,793.427,3376.11Zm-5.3,21.38v-16.73h5.131v16.73h-5.131Zm8.2-11.39c0-2.09-.067-3.83-0.136-5.34h4.456l0.238,2.33h0.1a5.9,5.9,0,0,1,5.1-2.7c3.375,0,5.907,2.29,5.907,7.22v9.88h-5.131v-9.27c0-2.15-.744-3.62-2.6-3.62a2.82,2.82,0,0,0-2.632,1.95,3.756,3.756,0,0,0-.169,1.29v9.65h-5.131V3386.1Z" transform="translate(-788 -3373.5)"/>
</svg>
