<svg xmlns="http://www.w3.org/2000/svg" width="24" height="19.5" viewBox="0 0 24 19.5">
  <defs>
    <style>
      .cls-1 {
        fill: #fff;
        fill-rule: evenodd;
      }
    </style>
  </defs>
  <path id="twitter.svg" class="cls-1" d="M714.492,3380.63a9.921,9.921,0,0,1-2.828.77,4.927,4.927,0,0,0,2.165-2.72,9.926,9.926,0,0,1-3.127,1.19,4.927,4.927,0,0,0-8.39,4.49,13.95,13.95,0,0,1-10.149-5.14,4.923,4.923,0,0,0,1.524,6.57,4.81,4.81,0,0,1-2.23-.61c0,0.02,0,.04,0,0.06a4.94,4.94,0,0,0,3.95,4.83,5.035,5.035,0,0,1-1.3.17,4.723,4.723,0,0,1-.927-0.09,4.925,4.925,0,0,0,4.6,3.42,9.884,9.884,0,0,1-6.115,2.11,11.354,11.354,0,0,1-1.175-.07,14.006,14.006,0,0,0,21.557-11.8c0-.21,0-0.42-0.014-0.63A10.211,10.211,0,0,0,714.492,3380.63Z" transform="translate(-690.5 -3378.31)"/>
</svg>
